<?xml version="1.0" encoding="UTF-8" standalone="no"?>
<svg
   version="1.2"
   viewBox="0 0 1684 1191"
   width="1684"
   height="1191"
   id="svg1"
   sodipodi:docname="logo-mobile.svg"
   inkscape:version="1.3.2 (091e20e, 2023-11-25, custom)"
   xmlns:inkscape="http://www.inkscape.org/namespaces/inkscape"
   xmlns:sodipodi="http://sodipodi.sourceforge.net/DTD/sodipodi-0.dtd"
   xmlns="http://www.w3.org/2000/svg"
   xmlns:svg="http://www.w3.org/2000/svg"
   xmlns:rdf="http://www.w3.org/1999/02/22-rdf-syntax-ns#"
   xmlns:cc="http://creativecommons.org/ns#"
   xmlns:dc="http://purl.org/dc/elements/1.1/">
  <sodipodi:namedview
     id="namedview1"
     pagecolor="#505050"
     bordercolor="#eeeeee"
     borderopacity="1"
     inkscape:showpageshadow="0"
     inkscape:pageopacity="0"
     inkscape:pagecheckerboard="0"
     inkscape:deskcolor="#505050"
     inkscape:zoom="0.32619647"
     inkscape:cx="640.71815"
     inkscape:cy="636.1197"
     inkscape:window-width="1920"
     inkscape:window-height="991"
     inkscape:window-x="-9"
     inkscape:window-y="-9"
     inkscape:window-maximized="1"
     inkscape:current-layer="Page 1" />
  <title
     id="title1">1-logo final-pdf</title>
  <defs
     id="defs1">
    <clipPath
       clipPathUnits="userSpaceOnUse"
       id="cp1">
      <path
         d="m0 0h1684v1191h-1684z"
         id="path1" />
    </clipPath>
  </defs>
  <style
     id="style1">
		.s0 { fill: #ffffff } 
	</style>
  <g
     id="Page 1"
     clip-path="url(#cp1)"
     transform="matrix(1.3518321,0,0,1.4259537,-281.47078,-339.63198)">
    <path
       id="Path 1"
       fill-rule="evenodd"
       class="s0"
       d="m 1021.1612,706.67793 c 0,50.82139 -17.8,92.81693 -54.50003,128.4113 -36.7,35.59437 -80,52.95511 -132.4,52.95511 -52.5,0 -95.7,-17.26375 -132.3,-52.76114 -33.2,-32.58776 -50.8,-70.02489 -54,-114.63909 l -0.7,-14.45112 V 407.95677 c 0,-2.3277 2.8,-3.58854 4.6,-2.13373 10.7,8.34092 43,36.56425 50.2,42.86843 0.9,0.7759 1.4,1.93975 1.4,3.1036 l -0.4,118.03365 36.9,-20.85229 c 27.1,-15.61497 58.8,-23.56794 94.3,-23.56794 52.4,0 95.7,17.26376 132.4,52.85813 36.70003,35.59437 54.50003,77.58991 54.50003,128.41131 z m -56.10003,0 c 0,-35.59438 -12.9,-65.85444 -38.2,-89.81033 -25.4,-24.63479 -56.6,-37.04918 -92.6,-37.04918 -36.1,0 -67.2,12.41439 -92.4,36.85521 -25.5,24.14986 -38.5,54.40992 -38.5,90.0043 0,35.01244 12.9,65.27251 38.3,89.81032 25.3,24.6348 56.5,37.04918 92.6,37.04918 36,0 67.2,-12.41438 92.6,-37.04918 25.3,-24.53781 38.2,-54.79788 38.2,-89.81032 z m -334.7,-12.22042 0.7,14.54811 v 173.89839 c 0,2.23071 -2.8,3.58854 -4.6,2.13373 -11.9,-9.40778 -48,-41.89856 -48.1,-42.09253 l -40,23.17998 c -27.1,15.61497 -58.8,23.56794 -94.3,23.56794 -52.4,0 -95.7,-17.26376 -132.4,-52.85813 -36.7,-35.59437 -54.5,-77.58991 -54.5,-128.4113 0,-50.82139 17.8,-92.81693 54.5,-128.41131 36.7,-35.59437 80,-52.95511 132.4,-52.95511 52.5,0 95.7,17.26376 132.3,52.76114 33.2,32.58776 50.8,70.0249 54,114.63909 z m -55.4,13.96619 c 0,-35.01245 -12.9,-65.27251 -38.3,-89.81032 -25.3,-24.6348 -56.5,-37.04919 -92.6,-37.04919 -36.1,0 -67.2,12.41439 -92.6,37.04919 -25.3,24.63479 -38.2,54.79787 -38.2,89.81032 0,35.59437 12.9,65.85444 38.2,89.81032 25.4,24.6348 56.6,37.04918 92.6,37.04918 36.1,0 67.2,-12.41438 92.4,-36.8552 25.5,-24.05288 38.5,-54.40993 38.5,-90.0043 z m 834.70003,26.86551 -0.1,0.77589 c -5.8,38.01906 -23,70.41285 -52.7,99.2181 -36.1,35.4004 -79.1,52.66416 -131.4,52.76114 -52.4,0 -95.4,-17.26375 -131.6,-52.76114 -29.6,-28.80525 -46.8,-61.19904 -52.6,-99.2181 l -0.1,-0.77589 c -1.1,-5.72226 -2,-23.66493 -2,-25.02275 l 0.1,-181.85136 c 0,-2.23071 2.6,-3.58853 4.5,-2.32769 l 49.6,32.10282 c 1.2,0.7759 1.9,2.13372 1.9,3.49155 v 158.08944 c 2.9,28.5143 15.4,54.11897 37.1,76.23209 l 0.5,0.48494 c 25.3,24.6348 56.4,37.04918 92.5,37.04918 36.1,0 67.2,-12.41438 92.6,-37.04918 l 0.5,-0.48494 c 25,-25.50768 37.7,-55.57377 37.7,-89.32538 l -0.1,-153.04611 c 0,-2.13372 2.2,-3.49154 4.1,-2.61865 l 48.9,22.50107 c 1.5,0.67891 2.5,2.23071 2.5,3.78251 v 130.93297 1.16385 c 0.4,8.34092 -0.2,17.06978 -1.9,25.89564 z"
       sodipodi:nodetypes="ssscccscccccsssscscscsssccscccsssssccscscscscscccccccccccscccsscccccsccc"
       style="stroke-width:0.984822" />
  </g>
  <metadata
     id="metadata1">
    <rdf:RDF>
      <cc:Work
         rdf:about="">
        <dc:title>1-logo final-pdf</dc:title>
      </cc:Work>
    </rdf:RDF>
  </metadata>
</svg>
