<svg width="22" height="22" viewBox="0 0 22 22" fill="none" xmlns="http://www.w3.org/2000/svg">
<path fill-rule="evenodd" clip-rule="evenodd" d="M20.675 0.125H1.325C0.662258 0.125 0.125 0.662258 0.125 1.325V20.675C0.125 21.3377 0.662258 21.875 1.325 21.875H11.75V13.4637H8.91875V10.1713H11.75V7.74875C11.75 4.94 13.4675 3.41 15.9725 3.41C16.8167 3.40816 17.6603 3.45072 18.5 3.5375V6.47375H16.775C15.41 6.47375 15.1437 7.11875 15.1437 8.07125V10.1675H18.4062L17.9825 13.46H15.125V21.875H20.675C21.3377 21.875 21.875 21.3377 21.875 20.675V1.325C21.875 0.662258 21.3377 0.125 20.675 0.125Z" fill="white"/>
</svg>
