<svg width="63" height="73" viewBox="0 0 63 73" fill="none" xmlns="http://www.w3.org/2000/svg">
<path d="M31.5 73L20.9306 66.861L0 54.75V18.25L10.5694 12.1527L20.9306 6.09725L31.5 0L42.0694 6.09725L52.4306 12.111L63 18.2082V54.75L52.4306 60.8473L42.0694 66.861L31.5 72.9582V73ZM26.7979 69.4502L31.5 72.1648L36.2021 69.4502L31.5 61.2649L26.7979 69.4502ZM21.4716 66.3598L26.1737 69.0744L30.8758 60.889H21.4716V66.3598ZM32.1242 60.889L36.8263 69.0744L41.5284 66.3598V60.889H32.1242ZM16.4366 63.3947L20.8058 65.9422V60.889H17.893L16.4366 63.3947ZM42.2774 60.889V65.9422L46.6466 63.3947L45.1902 60.889H42.2774ZM11.4848 60.5132L15.854 63.0606L17.3104 60.5549L15.854 58.0074L11.4848 60.5132ZM45.7728 60.5132L47.2292 63.0606L51.5984 60.5132L47.2292 57.9657L45.7728 60.5132ZM42.2774 60.1791H45.1902L46.6466 57.6316L42.2774 55.1259V60.1791ZM32.1658 60.1791H41.57V54.7082L36.8679 51.9937L32.1658 60.1791ZM21.5132 60.1791H30.9174L26.2153 51.9937L21.5132 54.7082V60.1791ZM17.893 60.1791H20.8058V55.1259L16.4366 57.6733L17.893 60.2208V60.1791ZM6.0753 57.381L10.7774 60.0955L15.4795 57.381L10.7774 49.1957L6.0753 57.381ZM47.6037 57.381L52.3058 60.0955L57.0079 57.381L52.3058 49.1957L47.6037 57.381ZM26.8395 51.6178L31.5416 59.8032L36.2437 51.6178L31.5416 48.9033L26.8395 51.6178ZM0.707398 54.3324L5.40951 57.0469L10.1116 48.8616H0.707398V54.3324ZM11.36 48.8616L16.0621 57.0469L20.7642 54.3324V48.8616H11.36ZM52.8884 48.8616L57.5905 57.0469L62.2926 54.3324V48.8616H52.8884ZM42.2358 54.3324L46.9379 57.0469L51.64 48.8616H42.2358V54.3324ZM21.4716 48.8616V53.9148L25.8408 51.3673L24.3844 48.8198H21.4716V48.8616ZM37.1592 51.409L41.5284 53.9148V48.8616H38.6156L37.1592 51.409ZM24.967 48.5275L26.4234 51.0749L30.7926 48.5275L26.4234 45.98L24.967 48.4857V48.5275ZM32.1658 48.5275L36.535 51.0749L37.9914 48.5692L36.535 46.0217L32.1658 48.5692V48.5275ZM52.8051 48.1934H62.2094V42.7225L57.5073 40.008L52.8051 48.1934ZM42.1942 48.1934H51.5984L46.8963 40.008L42.1942 42.7225V48.1934ZM21.43 48.1934H24.3428L25.7992 45.6876L21.43 43.1819V48.2351V48.1934ZM11.3184 48.1934H20.7226V42.7225L16.0205 40.008L11.3184 48.1934ZM38.574 48.1934H41.4868V43.1402L37.1176 45.6459L38.574 48.1516V48.1934ZM0.665786 48.1934H10.1116L5.40951 40.008L0.707398 42.7225V48.1934H0.665786ZM26.7563 45.3953L31.4584 48.1098L36.1605 45.3953L31.4584 37.21L26.7563 45.3953ZM5.99207 39.6321L10.6942 47.8175L15.3963 39.6321L10.6942 36.9176L5.99207 39.6321ZM47.5205 39.6321L52.2226 47.8175L56.9247 39.6321L52.2226 36.9176L47.5205 39.6321ZM21.43 42.3049L26.1321 45.0195L30.8342 36.8341H21.43V42.3049ZM32.0826 36.8341L36.7847 45.0195L41.4868 42.3049V36.8341H32.0826ZM0.665786 36.8341V41.8873L5.03501 39.3398L3.5786 36.8341H0.707398H0.665786ZM16.3534 39.3398L20.7226 41.8455V36.7923H17.8098L16.3534 39.3398ZM42.1526 36.8341V41.8873L46.5218 39.3398L45.0654 36.8341H42.1526ZM57.8402 39.3398L62.2094 41.8455V36.7923H59.2966L57.8402 39.2981V39.3398ZM11.36 36.4582L15.7292 38.964L17.1856 36.4165L15.7292 33.9108L11.36 36.4582ZM4.16116 36.4582L5.61757 38.964L9.98679 36.4582L5.61757 33.9525L4.16116 36.4582ZM45.6896 36.4582L47.146 39.0057L51.5152 36.5L47.146 33.9943L45.6896 36.5V36.4582ZM52.8884 36.4582L57.2576 38.964L58.714 36.4582L57.2576 33.9525L52.8884 36.4582ZM0.624174 36.1241H3.62021L5.07662 33.5767L0.707398 31.0709V36.1241H0.624174ZM42.1526 36.1241H45.0654L46.5218 33.6184L42.1526 31.1127V36.1659V36.1241ZM32.041 36.1241H41.4452V30.6533L36.7431 27.9388L32.041 36.1241ZM21.3884 36.1241H30.7926L26.0905 27.9388L21.3884 30.6533V36.1241ZM17.7682 36.1241H20.681V31.0709L16.3118 33.5767L17.7682 36.0824V36.1241ZM59.2966 36.1241H62.2094V31.0709L57.8402 33.5767L59.2966 36.0824V36.1241ZM47.4789 33.3261L52.181 36.0406L56.8831 33.3261L52.181 25.1407L47.4789 33.3261ZM5.95046 33.3261L10.6526 36.0406L15.3547 33.3261L10.6526 25.1407L5.95046 33.3261ZM26.7147 27.5629L31.4168 35.7483L36.1189 27.5629L31.4168 24.8484L26.7147 27.5629ZM42.1526 30.2357L46.8547 32.9502L51.5568 24.7649H42.1526V30.2357ZM52.8051 24.7649L57.5073 32.9502L62.2094 30.2357V24.7649H52.8051ZM0.707398 30.2775L5.40951 32.992L10.1116 24.8066H0.707398V30.2775ZM11.36 24.8066L16.0621 32.992L20.7642 30.2775V24.8066H11.36ZM37.1592 27.3541L41.5284 29.8598V24.8066H38.6156L37.1592 27.3541ZM21.4716 24.8066V29.8598L25.8408 27.3541L24.3844 24.8066H21.4716ZM32.2074 24.4725L36.5766 26.9783L38.033 24.4308L36.5766 21.9251L32.2074 24.4725ZM25.0086 24.4725L26.465 26.9783L30.8342 24.4308L26.465 21.9251L25.0086 24.4725ZM52.8884 24.1384H62.2926V18.6676L57.5905 15.9531L52.8884 24.1384ZM42.2358 24.1384H51.64L46.9379 15.9531L42.2358 18.6676V24.1384ZM21.4716 24.1384H24.3844L25.8408 21.6327L21.4716 19.127V24.1802V24.1384ZM11.36 24.1384H20.7642V18.6676L16.0621 15.9531L11.36 24.1384ZM38.6156 24.1384H41.5284V19.0852L37.1592 21.591L38.6156 24.0967V24.1384ZM0.707398 24.1384H10.1116L5.40951 15.9531L0.707398 18.6676V24.1384ZM26.7979 21.3404L31.5 24.0549L36.2021 21.3404L31.5 13.155L26.7979 21.3404ZM47.5621 15.5772L52.2642 23.7626L56.9663 15.5772L52.2642 12.8627L47.5621 15.5772ZM6.03369 15.5772L10.7358 23.7626L15.4379 15.5772L10.7358 12.8627L6.03369 15.5772ZM21.4716 18.25L26.1737 20.9645L30.8758 12.7792H21.4716V18.25ZM32.1242 12.7792L36.8263 20.9645L41.5284 18.25V12.7792H32.1242ZM42.2358 12.7792V17.8324L46.605 15.3267L45.1486 12.8209H42.2358V12.7792ZM16.4366 15.2849L20.8058 17.7906V12.7374H17.893L16.4366 15.2849ZM45.7728 12.4033L47.2292 14.9508L51.5984 12.4033L47.2292 9.85583L45.7728 12.4033ZM11.4848 12.4033L15.854 14.9508L17.3104 12.4033L15.854 9.85583L11.4848 12.4033ZM42.2774 12.0692H45.1486L46.605 9.52174L42.2358 6.97426V12.0692H42.2774ZM32.1658 12.0692H41.57V6.5984L36.8679 3.88387L32.1658 12.0692ZM21.5132 12.0692H30.9174L26.2153 3.88387L21.5132 6.5984V12.0692ZM17.893 12.0692H20.8058V6.97426L16.4366 9.52174L17.893 12.0692ZM26.7979 3.54977L31.5 11.7351L36.2021 3.54977L31.5 0.83524L26.7979 3.54977Z" fill="#B28158"/>
</svg>
