<?xml version="1.0" encoding="UTF-8"?><svg id="Layer_2" xmlns="http://www.w3.org/2000/svg" viewBox="0 0 295.68 104.87"><defs><style>.cls-1{fill:#fff;}</style></defs><g id="Layer_1-2"><g><path class="cls-1" d="M243.77,71.1l11.57-28.14,.62-2.71,.94,4.27,11.05,26.58h-24.18Zm26.68,28.56v.73h25.22v-.73l-6.98-5.21-29.18-70.97h-1.88l-29.29,70.97-7.09,5.21v.73h19.91v-.73l-7.09-5.21,7.5-18.13h28.45l7.5,18.13-7.09,5.21Zm-63.37,.73v-.73l-7.09-5.21V61.72l18.97-29.91,7.09-5.21v-.73h-20.43v.73l7.09,5.21-15.11,23.87-1.36,5.94-1.46-6.25-15.22-23.55,7.09-5.21v-.73h-27.51v.73l7.09,5.21,22.82,35.54v27.1l-7.09,5.21v.73h25.12ZM74.41,25.87v.73l7.09,5.21v41.06c0,20.01,8.03,29.39,32.52,29.39,22.09,0,26.89-11.78,26.89-24.91V31.81l7.09-5.21v-.73h-19.39v.73l7.09,5.21v41.69c0,15.63-3.13,23.55-21.68,23.55s-21.57-12.19-21.57-24.18V31.81l7.09-5.21v-.73h-25.12Zm-56.38,5.94l.73-.73h12.82c5.31,0,16.05,3.13,16.05,16.26,0,10.11-8.86,15.53-18.76,15.53h-10.11l-.73-.73V31.81ZM7.09,94.44l-7.09,5.21v.73H25.12v-.73l-7.09-5.21v-25.64l.73-.73h11.26l17.09,26.37,8.13,5.94,10.84,4.48-22.3-35.96-5-1.46c10.53-1.77,19.8-8.02,19.8-20.84,0-19.18-18.24-20.74-24.6-20.74H0v.73l7.09,5.21v62.64Z"/><rect class="cls-1" x="97.15" y="2.08" width="10.05" height="10.05" transform="translate(24.9 74.33) rotate(-45)"/><rect class="cls-1" x="119.86" y="2.08" width="10.05" height="10.05" transform="translate(31.55 90.39) rotate(-45)"/></g></g></svg>