<svg width="24" height="24" viewBox="0 0 24 24" fill="none" xmlns="http://www.w3.org/2000/svg">
<path fill-rule="evenodd" clip-rule="evenodd" d="M7.51423 1.19006C8.6738 1.13715 9.04403 1.12463 11.9966 1.12463C14.9491 1.12463 15.3193 1.13715 16.4789 1.19006C17.6361 1.24283 18.4263 1.42663 19.1179 1.6954C19.8328 1.97319 20.439 2.34492 21.0435 2.9493C21.6479 3.55373 22.0196 4.16001 22.2974 4.87491C22.5661 5.56642 22.7499 6.35672 22.8027 7.51387C22.8556 8.67344 22.8681 9.04366 22.8681 11.9962C22.8681 14.9487 22.8556 15.319 22.8027 16.4785C22.7499 17.6357 22.5661 18.426 22.2974 19.1175C22.0196 19.8324 21.6479 20.4387 21.0435 21.0431C20.439 21.6475 19.8328 22.0192 19.1179 22.2971C18.4263 22.5658 17.6361 22.7496 16.4789 22.8023C15.3193 22.8553 14.9491 22.8678 11.9966 22.8678C9.04403 22.8678 8.6738 22.8553 7.51423 22.8023C6.35708 22.7496 5.56679 22.5658 4.87528 22.2971C4.16038 22.0192 3.5541 21.6475 2.94967 21.0431C2.34529 20.4387 1.97355 19.8324 1.69577 19.1175C1.427 18.426 1.2432 17.6357 1.19042 16.4785C1.13751 15.319 1.125 14.9487 1.125 11.9962C1.125 9.04366 1.13751 8.67344 1.19042 7.51387C1.2432 6.35672 1.427 5.56642 1.69577 4.87491C1.97355 4.16001 2.34529 3.55373 2.94967 2.9493C3.5541 2.34492 4.16038 1.97319 4.87528 1.6954C5.56679 1.42663 6.35708 1.24283 7.51423 1.19006ZM18.4083 3.52119C18.0252 3.37231 17.4496 3.1952 16.3896 3.14687C15.2433 3.09456 14.8994 3.08347 11.9966 3.08347C9.09374 3.08347 8.74989 3.09456 7.60352 3.14687C6.54356 3.1952 5.96791 3.37231 5.58483 3.52119C5.07737 3.71841 4.71522 3.95399 4.33481 4.33444C3.95436 4.71485 3.71877 5.07701 3.52156 5.58446C3.37267 5.96755 3.19557 6.54319 3.14723 7.60316C3.09493 8.74952 3.08384 9.09338 3.08384 11.9962C3.08384 14.899 3.09493 15.2429 3.14723 16.3893C3.19557 17.4492 3.37267 18.0249 3.52156 18.4079C3.71877 18.9154 3.9544 19.2776 4.33481 19.658C4.71522 20.0384 5.07737 20.274 5.58483 20.4712C5.96791 20.6201 6.54356 20.7972 7.60352 20.8455C8.74976 20.8978 9.09353 20.9089 11.9966 20.9089C14.8996 20.9089 15.2434 20.8978 16.3896 20.8455C17.4496 20.7972 18.0252 20.6201 18.4083 20.4712C18.9158 20.274 19.2779 20.0384 19.6583 19.658C20.0388 19.2776 20.2744 18.9154 20.4716 18.4079C20.6205 18.0249 20.7976 17.4492 20.8459 16.3893C20.8982 15.2429 20.9093 14.899 20.9093 11.9962C20.9093 9.09338 20.8982 8.74952 20.8459 7.60316C20.7976 6.54319 20.6205 5.96755 20.4716 5.58446C20.2744 5.07701 20.0388 4.71485 19.6583 4.33444C19.2779 3.95399 18.9158 3.71841 18.4083 3.52119ZM11.9966 6.41351C8.91331 6.41351 6.41387 8.91295 6.41387 11.9962C6.41387 15.0795 8.91331 17.5789 11.9966 17.5789C15.0798 17.5789 17.5793 15.0795 17.5793 11.9962C17.5793 8.91295 15.0798 6.41351 11.9966 6.41351ZM8.37271 11.9962C8.37271 13.9976 9.99516 15.6201 11.9966 15.6201C13.998 15.6201 15.6204 13.9976 15.6204 11.9962C15.6204 9.99479 13.998 8.37235 11.9966 8.37235C9.99516 8.37235 8.37271 9.99479 8.37271 11.9962ZM17.7998 7.49751C18.5203 7.49751 19.1044 6.91346 19.1044 6.19294C19.1044 5.47243 18.5203 4.88833 17.7998 4.88833C17.0794 4.88833 16.4953 5.47243 16.4953 6.19294C16.4953 6.91346 17.0794 7.49751 17.7998 7.49751Z" fill="white"/>
</svg>
